<svg width="143" height="194" viewBox="0 0 143 194" fill="none" xmlns="http://www.w3.org/2000/svg">
<g filter="url(#filter0_d)">
<mask id="mask0" mask-type="alpha" maskUnits="userSpaceOnUse" x="6" y="6" width="127" height="178">
<rect x="6" y="6" width="127" height="178" rx="8" fill="white"/>
</mask>
<g mask="url(#mask0)">
<rect x="6" y="6" width="127" height="178" rx="8" fill="white"/>
<rect x="6" y="134" width="127" height="50" fill="#2A212B"/>
<path d="M132.812 53.125L97.625 134H78.5625L113.812 57.625H68.5625V43H132.812V53.125Z" fill="#2A212B"/>
<circle cx="30.9999" cy="26.8795" r="4.87951" fill="#2A212B"/>
<circle cx="26.8795" cy="33.7108" r="4.87951" fill="#2A212B"/>
<circle cx="35.1205" cy="33.7108" r="4.87951" fill="#2A212B"/>
<circle cx="108" cy="162.71" r="4.87951" transform="rotate(-180 108 162.71)" fill="white"/>
<circle cx="112.12" cy="155.879" r="4.87951" transform="rotate(-180 112.12 155.879)" fill="white"/>
<circle cx="103.88" cy="155.879" r="4.87951" transform="rotate(-180 103.88 155.879)" fill="white"/>
<path d="M2.88672 178.492L22.6797 133H33.4023L13.5742 175.961H39.0273V184.188H2.88672V178.492Z" fill="white"/>
</g>
</g>
<defs>
<filter id="filter0_d" x="0" y="0" width="143" height="194" filterUnits="userSpaceOnUse" color-interpolation-filters="sRGB">
<feFlood flood-opacity="0" result="BackgroundImageFix"/>
<feColorMatrix in="SourceAlpha" type="matrix" values="0 0 0 0 0 0 0 0 0 0 0 0 0 0 0 0 0 0 127 0"/>
<feOffset dx="2" dy="2"/>
<feGaussianBlur stdDeviation="4"/>
<feColorMatrix type="matrix" values="0 0 0 0 0 0 0 0 0 0 0 0 0 0 0 0 0 0 0.25 0"/>
<feBlend mode="normal" in2="BackgroundImageFix" result="effect1_dropShadow"/>
<feBlend mode="normal" in="SourceGraphic" in2="effect1_dropShadow" result="shape"/>
</filter>
</defs>
</svg>
