<svg width="143" height="194" viewBox="0 0 143 194" fill="none" xmlns="http://www.w3.org/2000/svg">
<g filter="url(#filter0_d)">
<mask id="mask0" mask-type="alpha" maskUnits="userSpaceOnUse" x="6" y="6" width="127" height="178">
<rect x="6" y="6" width="127" height="178" rx="8" fill="white"/>
</mask>
<g mask="url(#mask0)">
<rect x="6" y="6" width="127" height="178" rx="8" fill="white"/>
<rect x="6" y="134" width="127" height="50" fill="#2A212B"/>
<path d="M113.188 97.625C108.479 102.25 102.979 104.562 96.6875 104.562C88.6458 104.562 82.2083 101.812 77.375 96.3125C72.5417 90.7708 70.125 83.3125 70.125 73.9375C70.125 67.9792 71.4167 62.5208 74 57.5625C76.625 52.5625 80.2708 48.6875 84.9375 45.9375C89.6042 43.1458 94.8542 41.75 100.688 41.75C106.688 41.75 112.021 43.25 116.688 46.25C121.354 49.25 124.979 53.5625 127.562 59.1875C130.146 64.8125 131.458 71.25 131.5 78.5V85.1875C131.5 100.354 127.729 112.271 120.188 120.938C112.646 129.604 101.958 134.229 88.125 134.812L83.6875 134.875V119.812L87.6875 119.75C103.396 119.042 111.896 111.667 113.188 97.625ZM101.125 90.75C104.042 90.75 106.542 90 108.625 88.5C110.75 87 112.354 85.1875 113.438 83.0625V75.625C113.438 69.5 112.271 64.75 109.938 61.375C107.604 58 104.479 56.3125 100.562 56.3125C96.9375 56.3125 93.9583 57.9792 91.625 61.3125C89.2917 64.6042 88.125 68.75 88.125 73.75C88.125 78.7083 89.25 82.7917 91.5 86C93.7917 89.1667 97 90.75 101.125 90.75Z" fill="#2A212B"/>
<circle cx="30.9999" cy="26.8795" r="4.87951" fill="#2A212B"/>
<circle cx="26.8795" cy="33.7108" r="4.87951" fill="#2A212B"/>
<circle cx="35.1205" cy="33.7108" r="4.87951" fill="#2A212B"/>
<circle cx="108" cy="162.71" r="4.87951" transform="rotate(-180 108 162.71)" fill="white"/>
<circle cx="112.12" cy="155.879" r="4.87951" transform="rotate(-180 112.12 155.879)" fill="white"/>
<circle cx="103.88" cy="155.879" r="4.87951" transform="rotate(-180 103.88 155.879)" fill="white"/>
<path d="M13.9258 153.461C16.5742 150.859 19.668 149.559 23.207 149.559C27.7305 149.559 31.3516 151.105 34.0703 154.199C36.7891 157.316 38.1484 161.512 38.1484 166.785C38.1484 170.137 37.4219 173.207 35.9688 175.996C34.4922 178.809 32.4414 180.988 29.8164 182.535C27.1914 184.105 24.2383 184.891 20.957 184.891C17.582 184.891 14.582 184.047 11.957 182.359C9.33203 180.672 7.29297 178.246 5.83984 175.082C4.38672 171.918 3.64844 168.297 3.625 164.219V160.457C3.625 151.926 5.74609 145.223 9.98828 140.348C14.2305 135.473 20.2422 132.871 28.0234 132.543L30.5195 132.508V140.98L28.2695 141.016C19.4336 141.414 14.6523 145.562 13.9258 153.461ZM20.7109 157.328C19.0703 157.328 17.6641 157.75 16.4922 158.594C15.2969 159.438 14.3945 160.457 13.7852 161.652V165.836C13.7852 169.281 14.4414 171.953 15.7539 173.852C17.0664 175.75 18.8242 176.699 21.0273 176.699C23.0664 176.699 24.7422 175.762 26.0547 173.887C27.3672 172.035 28.0234 169.703 28.0234 166.891C28.0234 164.102 27.3906 161.805 26.125 160C24.8359 158.219 23.0313 157.328 20.7109 157.328Z" fill="white"/>
</g>
</g>
<defs>
<filter id="filter0_d" x="0" y="0" width="143" height="194" filterUnits="userSpaceOnUse" color-interpolation-filters="sRGB">
<feFlood flood-opacity="0" result="BackgroundImageFix"/>
<feColorMatrix in="SourceAlpha" type="matrix" values="0 0 0 0 0 0 0 0 0 0 0 0 0 0 0 0 0 0 127 0"/>
<feOffset dx="2" dy="2"/>
<feGaussianBlur stdDeviation="4"/>
<feColorMatrix type="matrix" values="0 0 0 0 0 0 0 0 0 0 0 0 0 0 0 0 0 0 0.25 0"/>
<feBlend mode="normal" in2="BackgroundImageFix" result="effect1_dropShadow"/>
<feBlend mode="normal" in="SourceGraphic" in2="effect1_dropShadow" result="shape"/>
</filter>
</defs>
</svg>
