<svg width="143" height="194" viewBox="0 0 143 194" fill="none" xmlns="http://www.w3.org/2000/svg">
<g filter="url(#filter0_d)">
<mask id="mask0" mask-type="alpha" maskUnits="userSpaceOnUse" x="6" y="6" width="127" height="178">
<rect x="6" y="6" width="127" height="178" rx="8" fill="white"/>
</mask>
<g mask="url(#mask0)">
<rect x="6" y="6" width="127" height="178" rx="8" fill="white"/>
<rect x="6" y="134" width="127" height="50" fill="#F05056"/>
<path d="M11.2539 143.547H29.7461L33.2617 133H44.4766L25.4219 184.188H15.6484L-3.51172 133H7.70313L11.2539 143.547ZM26.8984 152.09H14.1016L20.5352 171.25L26.8984 152.09Z" fill="white"/>
<path d="M117.938 115.25H85.0625L78.8125 134H58.875L92.75 43H110.125L144.188 134H124.25L117.938 115.25ZM90.125 100.062H112.875L101.438 66L90.125 100.062Z" fill="#F05056"/>
<rect x="22" y="33.31" width="16" height="16" transform="rotate(-45 22 33.31)" fill="#F05056"/>
<rect x="94" y="159.314" width="16" height="16" transform="rotate(-45 94 159.314)" fill="white"/>
</g>
</g>
<defs>
<filter id="filter0_d" x="0" y="0" width="143" height="194" filterUnits="userSpaceOnUse" color-interpolation-filters="sRGB">
<feFlood flood-opacity="0" result="BackgroundImageFix"/>
<feColorMatrix in="SourceAlpha" type="matrix" values="0 0 0 0 0 0 0 0 0 0 0 0 0 0 0 0 0 0 127 0"/>
<feOffset dx="2" dy="2"/>
<feGaussianBlur stdDeviation="4"/>
<feColorMatrix type="matrix" values="0 0 0 0 0 0 0 0 0 0 0 0 0 0 0 0 0 0 0.25 0"/>
<feBlend mode="normal" in2="BackgroundImageFix" result="effect1_dropShadow"/>
<feBlend mode="normal" in="SourceGraphic" in2="effect1_dropShadow" result="shape"/>
</filter>
</defs>
</svg>
