<svg width="143" height="194" viewBox="0 0 143 194" fill="none" xmlns="http://www.w3.org/2000/svg">
<g filter="url(#filter0_d)">
<mask id="mask0" mask-type="alpha" maskUnits="userSpaceOnUse" x="6" y="6" width="127" height="178">
<rect x="6" y="6" width="127" height="178" rx="8" fill="white"/>
</mask>
<g mask="url(#mask0)">
<rect x="6" y="6" width="127" height="178" rx="8" fill="white"/>
<rect x="6" y="134" width="127" height="50" fill="#F05056"/>
<path d="M33.2836 133H43.4438L43.4438 172.164L55.5727 168.402V176.664L34.3734 184.258H33.2836L33.2836 133ZM-3.43359 154.164C-3.43359 147.086 -1.96875 141.672 0.960938 137.922C3.89063 134.172 8.17969 132.297 13.8281 132.297C19.4063 132.297 23.6719 134.137 26.625 137.816C29.5781 141.496 31.0898 146.77 31.1602 153.637V163.059C31.1602 170.207 29.6836 175.633 26.7305 179.336C23.7539 183.039 19.4766 184.891 13.8984 184.891C8.32031 184.891 4.05469 183.051 1.10156 179.371C-1.85156 175.715 -3.36328 170.453 -3.43359 163.586V154.164ZM6.72656 164.5C6.72656 168.742 7.3125 171.824 8.48438 173.746C9.63281 175.691 11.4375 176.664 13.8984 176.664C16.2891 176.664 18.0586 175.738 19.207 173.887C20.332 172.059 20.9297 169.188 21 165.273V152.828C21 148.656 20.4375 145.551 19.3125 143.512C18.1641 141.496 16.3359 140.488 13.8281 140.488C11.3438 140.488 9.55078 141.461 8.44922 143.406C7.34766 145.352 6.77344 148.328 6.72656 152.336V164.5Z" fill="white"/>
<path d="M77.6625 134H59.6V64.375L38.0375 71.0625V56.375L75.725 42.875H77.6625V134ZM142.938 96.375C142.938 108.958 140.333 118.583 135.125 125.25C129.917 131.917 122.292 135.25 112.25 135.25C102.333 135.25 94.75 131.979 89.5 125.438C84.25 118.896 81.5625 109.521 81.4375 97.3125V80.5625C81.4375 67.8542 84.0625 58.2083 89.3125 51.625C94.6042 45.0417 102.208 41.75 112.125 41.75C122.042 41.75 129.625 45.0208 134.875 51.5625C140.125 58.0625 142.812 67.4167 142.938 79.625V96.375ZM124.875 78C124.875 70.4583 123.833 64.9792 121.75 61.5625C119.708 58.1042 116.5 56.375 112.125 56.375C107.875 56.375 104.729 58.0208 102.688 61.3125C100.688 64.5625 99.625 69.6667 99.5 76.625V98.75C99.5 106.167 100.5 111.688 102.5 115.312C104.542 118.896 107.792 120.688 112.25 120.688C116.667 120.688 119.854 118.958 121.812 115.5C123.771 112.042 124.792 106.75 124.875 99.625V78Z" fill="#F05056"/>
<rect x="22" y="33.31" width="16" height="16" transform="rotate(-45 22 33.31)" fill="#F05056"/>
<rect x="94" y="159.314" width="16" height="16" transform="rotate(-45 94 159.314)" fill="white"/>
</g>
</g>
<defs>
<filter id="filter0_d" x="0" y="0" width="143" height="194" filterUnits="userSpaceOnUse" color-interpolation-filters="sRGB">
<feFlood flood-opacity="0" result="BackgroundImageFix"/>
<feColorMatrix in="SourceAlpha" type="matrix" values="0 0 0 0 0 0 0 0 0 0 0 0 0 0 0 0 0 0 127 0"/>
<feOffset dx="2" dy="2"/>
<feGaussianBlur stdDeviation="4"/>
<feColorMatrix type="matrix" values="0 0 0 0 0 0 0 0 0 0 0 0 0 0 0 0 0 0 0.25 0"/>
<feBlend mode="normal" in2="BackgroundImageFix" result="effect1_dropShadow"/>
<feBlend mode="normal" in="SourceGraphic" in2="effect1_dropShadow" result="shape"/>
</filter>
</defs>
</svg>
