<svg width="143" height="194" viewBox="0 0 143 194" fill="none" xmlns="http://www.w3.org/2000/svg">
<g filter="url(#filter0_d)">
<mask id="mask0" mask-type="alpha" maskUnits="userSpaceOnUse" x="6" y="6" width="127" height="178">
<rect x="6" y="6" width="127" height="178" rx="8" fill="white"/>
</mask>
<g mask="url(#mask0)">
<rect x="6" y="6" width="127" height="178" rx="8" fill="white"/>
<rect x="6" y="134" width="127" height="50" fill="#F05056"/>
<path d="M22.75 153.531L28.2344 147.625V133H38.7813L38.7812 184.188H28.2344L28.2344 160.984L23.5938 167.348L10.5508 184.188H-2.42188L15.7539 161.441L-2.94922 133H9.60156L22.75 153.531Z" fill="white"/>
<path d="M97.5 97.5L87.75 108V134H69V43H87.75V84.25L96 72.9375L119.188 43H142.25L109.938 83.4375L143.188 134H120.875L97.5 97.5Z" fill="#F05056"/>
<rect x="22" y="33.31" width="16" height="16" transform="rotate(-45 22 33.31)" fill="#F05056"/>
<rect x="94" y="159.314" width="16" height="16" transform="rotate(-45 94 159.314)" fill="white"/>
</g>
</g>
<defs>
<filter id="filter0_d" x="0" y="0" width="143" height="194" filterUnits="userSpaceOnUse" color-interpolation-filters="sRGB">
<feFlood flood-opacity="0" result="BackgroundImageFix"/>
<feColorMatrix in="SourceAlpha" type="matrix" values="0 0 0 0 0 0 0 0 0 0 0 0 0 0 0 0 0 0 127 0"/>
<feOffset dx="2" dy="2"/>
<feGaussianBlur stdDeviation="4"/>
<feColorMatrix type="matrix" values="0 0 0 0 0 0 0 0 0 0 0 0 0 0 0 0 0 0 0.25 0"/>
<feBlend mode="normal" in2="BackgroundImageFix" result="effect1_dropShadow"/>
<feBlend mode="normal" in="SourceGraphic" in2="effect1_dropShadow" result="shape"/>
</filter>
</defs>
</svg>
