<svg width="143" height="194" viewBox="0 0 143 194" fill="none" xmlns="http://www.w3.org/2000/svg">
<g filter="url(#filter0_d)">
<mask id="mask0" mask-type="alpha" maskUnits="userSpaceOnUse" x="6" y="6" width="127" height="178">
<rect x="6" y="6" width="127" height="178" rx="8" fill="white"/>
</mask>
<g mask="url(#mask0)">
<rect x="6" y="6" width="127" height="178" rx="8" fill="white"/>
<rect x="6" y="134" width="127" height="50" fill="#F05056"/>
<path d="M27.3555 163.094H21.9414C19.3633 163.094 17.4531 163.738 16.2109 165.027C14.9688 166.316 14.3477 168.027 14.3477 170.16C14.3477 172.223 14.9688 173.828 16.2109 174.977C17.4297 176.125 19.1172 176.699 21.2734 176.699C23.2188 176.699 24.8477 176.16 26.1602 175.082C27.4727 174.027 28.1289 172.645 28.1289 170.934H38.2891C38.2891 173.605 37.5742 175.996 36.1445 178.105C34.6914 180.238 32.6758 181.902 30.0977 183.098C27.4961 184.293 24.6367 184.891 21.5195 184.891C16.1055 184.891 11.8633 183.59 8.79297 180.988C5.72266 178.41 4.1875 174.848 4.1875 170.301C4.1875 167.957 4.90234 165.801 6.33203 163.832C7.76172 161.863 9.63672 160.352 11.957 159.297C9.07422 158.266 6.92969 156.719 5.52344 154.656C4.09375 152.594 3.37891 150.156 3.37891 147.344C3.37891 142.797 5.04297 139.152 8.37109 136.41C11.6758 133.668 16.0586 132.297 21.5195 132.297C26.6289 132.297 30.8125 133.645 34.0703 136.34C37.3047 139.035 38.9219 142.598 38.9219 147.027H28.7617C28.7617 145.105 28.0469 143.535 26.6172 142.316C25.1641 141.098 23.3828 140.488 21.2734 140.488C18.8594 140.488 16.9727 141.121 15.6133 142.387C14.2305 143.676 13.5391 145.375 13.5391 147.484C13.5391 152.594 16.3516 155.148 21.9766 155.148H27.3555V163.094Z" fill="white"/>
<path d="M89.3125 80.5H98.9375C103.521 80.5 106.917 79.3542 109.125 77.0625C111.333 74.7708 112.438 71.7292 112.438 67.9375C112.438 64.2708 111.333 61.4167 109.125 59.375C106.958 57.3333 103.958 56.3125 100.125 56.3125C96.6667 56.3125 93.7708 57.2708 91.4375 59.1875C89.1042 61.0625 87.9375 63.5208 87.9375 66.5625H69.875C69.875 61.8125 71.1458 57.5625 73.6875 53.8125C76.2708 50.0208 79.8542 47.0625 84.4375 44.9375C89.0625 42.8125 94.1458 41.75 99.6875 41.75C109.312 41.75 116.854 44.0625 122.312 48.6875C127.771 53.2708 130.5 59.6042 130.5 67.6875C130.5 71.8542 129.229 75.6875 126.688 79.1875C124.146 82.6875 120.812 85.375 116.688 87.25C121.812 89.0833 125.625 91.8333 128.125 95.5C130.667 99.1667 131.938 103.5 131.938 108.5C131.938 116.583 128.979 123.062 123.062 127.938C117.188 132.812 109.396 135.25 99.6875 135.25C90.6042 135.25 83.1667 132.854 77.375 128.062C71.625 123.271 68.75 116.938 68.75 109.062H86.8125C86.8125 112.479 88.0833 115.271 90.625 117.438C93.2083 119.604 96.375 120.688 100.125 120.688C104.417 120.688 107.771 119.562 110.188 117.312C112.646 115.021 113.875 112 113.875 108.25C113.875 99.1667 108.875 94.625 98.875 94.625H89.3125V80.5Z" fill="#F05056"/>
<path d="M22 29.2L32 40L42 29.2L35.3333 22L32 25.6L28.6667 22L22 29.2Z" fill="#F05056"/>
<path d="M117 160.8L107 150L97 160.8L103.667 168L107 164.4L110.333 168L117 160.8Z" fill="white"/>
</g>
</g>
<defs>
<filter id="filter0_d" x="0" y="0" width="143" height="194" filterUnits="userSpaceOnUse" color-interpolation-filters="sRGB">
<feFlood flood-opacity="0" result="BackgroundImageFix"/>
<feColorMatrix in="SourceAlpha" type="matrix" values="0 0 0 0 0 0 0 0 0 0 0 0 0 0 0 0 0 0 127 0"/>
<feOffset dx="2" dy="2"/>
<feGaussianBlur stdDeviation="4"/>
<feColorMatrix type="matrix" values="0 0 0 0 0 0 0 0 0 0 0 0 0 0 0 0 0 0 0.25 0"/>
<feBlend mode="normal" in2="BackgroundImageFix" result="effect1_dropShadow"/>
<feBlend mode="normal" in="SourceGraphic" in2="effect1_dropShadow" result="shape"/>
</filter>
</defs>
</svg>
