<svg width="143" height="194" viewBox="0 0 143 194" fill="none" xmlns="http://www.w3.org/2000/svg">
<g filter="url(#filter0_d)">
<mask id="mask0" mask-type="alpha" maskUnits="userSpaceOnUse" x="6" y="6" width="127" height="178">
<rect x="6" y="6" width="127" height="178" rx="8" fill="white"/>
</mask>
<g mask="url(#mask0)">
<rect x="6" y="6" width="127" height="178" rx="8" fill="white"/>
<rect x="6" y="134" width="127" height="50" fill="#F05056"/>
<path d="M36.1797 158.172L33.2266 184.188H4.53906V175.715H24.8945L26.1602 164.711C23.7461 166 21.1797 166.645 18.4609 166.645C13.5859 166.645 9.76563 165.133 7 162.109C4.23438 159.086 2.85156 154.855 2.85156 149.418C2.85156 146.113 3.55469 143.148 4.96094 140.523C6.34375 137.922 8.33594 135.895 10.9375 134.441C13.5391 133.012 16.6094 132.297 20.1484 132.297C23.2422 132.297 26.1133 132.918 28.7617 134.16C31.4102 135.426 33.5078 137.195 35.0547 139.469C36.5781 141.742 37.3867 144.332 37.4805 147.238H27.4258C27.2148 145.105 26.4766 143.441 25.2109 142.246C23.9219 141.074 22.2461 140.488 20.1836 140.488C17.8867 140.488 16.1172 141.309 14.875 142.949C13.6328 144.613 13.0117 146.957 13.0117 149.98C13.0117 152.887 13.7266 155.113 15.1563 156.66C16.5859 158.207 18.6133 158.98 21.2383 158.98C23.6523 158.98 25.6094 158.348 27.1094 157.082L28.0938 156.168L36.1797 158.172Z" fill="white"/>
<path d="M73.625 89.25L78.875 43H129.875V58.0625H93.6875L91.4375 77.625C95.7292 75.3333 100.292 74.1875 105.125 74.1875C113.792 74.1875 120.583 76.875 125.5 82.25C130.417 87.625 132.875 95.1458 132.875 104.812C132.875 110.688 131.625 115.958 129.125 120.625C126.667 125.25 123.125 128.854 118.5 131.438C113.875 133.979 108.417 135.25 102.125 135.25C96.625 135.25 91.5208 134.146 86.8125 131.938C82.1042 129.688 78.375 126.542 75.625 122.5C72.9167 118.458 71.4792 113.854 71.3125 108.688H89.1875C89.5625 112.479 90.875 115.438 93.125 117.562C95.4167 119.646 98.3958 120.688 102.062 120.688C106.146 120.688 109.292 119.229 111.5 116.312C113.708 113.354 114.812 109.188 114.812 103.812C114.812 98.6458 113.542 94.6875 111 91.9375C108.458 89.1875 104.854 87.8125 100.188 87.8125C95.8958 87.8125 92.4167 88.9375 89.75 91.1875L88 92.8125L73.625 89.25Z" fill="#F05056"/>
<path d="M22 29.2L32 40L42 29.2L35.3333 22L32 25.6L28.6667 22L22 29.2Z" fill="#F05056"/>
<path d="M117 160.8L107 150L97 160.8L103.667 168L107 164.4L110.333 168L117 160.8Z" fill="white"/>
</g>
</g>
<defs>
<filter id="filter0_d" x="0" y="0" width="143" height="194" filterUnits="userSpaceOnUse" color-interpolation-filters="sRGB">
<feFlood flood-opacity="0" result="BackgroundImageFix"/>
<feColorMatrix in="SourceAlpha" type="matrix" values="0 0 0 0 0 0 0 0 0 0 0 0 0 0 0 0 0 0 127 0"/>
<feOffset dx="2" dy="2"/>
<feGaussianBlur stdDeviation="4"/>
<feColorMatrix type="matrix" values="0 0 0 0 0 0 0 0 0 0 0 0 0 0 0 0 0 0 0.25 0"/>
<feBlend mode="normal" in2="BackgroundImageFix" result="effect1_dropShadow"/>
<feBlend mode="normal" in="SourceGraphic" in2="effect1_dropShadow" result="shape"/>
</filter>
</defs>
</svg>
