<svg width="143" height="194" viewBox="0 0 143 194" fill="none" xmlns="http://www.w3.org/2000/svg">
<g filter="url(#filter0_d)">
<mask id="mask0" mask-type="alpha" maskUnits="userSpaceOnUse" x="6" y="6" width="127" height="178">
<rect x="6" y="6" width="127" height="178" rx="8" fill="white"/>
</mask>
<g mask="url(#mask0)">
<rect x="6" y="6" width="127" height="178" rx="8" fill="white"/>
<rect x="6" y="134" width="127" height="50" fill="#F05056"/>
<path d="M4.32813 170.582C4.32813 168.098 4.94922 165.895 6.19141 163.973C7.43359 162.051 9.14453 160.516 11.3242 159.367C8.83984 158.172 6.87109 156.52 5.41797 154.41C3.96484 152.324 3.23828 149.863 3.23828 147.027C3.23828 142.48 4.78516 138.883 7.87891 136.234C10.9727 133.609 15.1797 132.297 20.5 132.297C25.8203 132.297 30.0391 133.621 33.1563 136.27C36.2734 138.918 37.832 142.504 37.832 147.027C37.832 149.863 37.1055 152.336 35.6523 154.445C34.1992 156.555 32.2422 158.195 29.7813 159.367C31.9609 160.516 33.6719 162.051 34.9141 163.973C36.1328 165.895 36.7422 168.098 36.7422 170.582C36.7422 174.941 35.2891 178.41 32.3828 180.988C29.4766 183.59 25.5273 184.891 20.5352 184.891C15.5664 184.891 11.6289 183.602 8.72266 181.023C5.79297 178.469 4.32812 174.988 4.32813 170.582ZM13.4336 147.766C13.4336 149.992 14.0781 151.773 15.3672 153.109C16.6563 154.445 18.3906 155.113 20.5703 155.113C22.7266 155.113 24.4492 154.445 25.7383 153.109C27.0273 151.797 27.6719 150.016 27.6719 147.766C27.6719 145.586 27.0391 143.828 25.7734 142.492C24.5078 141.156 22.75 140.488 20.5 140.488C18.2969 140.488 16.5742 141.133 15.332 142.422C14.0664 143.711 13.4336 145.492 13.4336 147.766ZM14.4883 170.09C14.4883 172.082 15.0156 173.676 16.0703 174.871C17.125 176.09 18.6133 176.699 20.5352 176.699C22.4336 176.699 23.9102 176.113 24.9648 174.941C26.0195 173.77 26.5469 172.152 26.5469 170.09C26.5469 168.051 26.0195 166.41 24.9648 165.168C23.9102 163.926 22.4219 163.305 20.5 163.305C18.5781 163.305 17.1016 163.926 16.0703 165.168C15.0156 166.41 14.4883 168.051 14.4883 170.09Z" fill="white"/>
<path d="M130.25 67.1875C130.25 71.6042 129.146 75.5208 126.938 78.9375C124.729 82.3542 121.688 85.0833 117.812 87.125C122.229 89.25 125.729 92.1875 128.312 95.9375C130.896 99.6458 132.188 104.021 132.188 109.062C132.188 117.146 129.438 123.542 123.938 128.25C118.438 132.917 110.958 135.25 101.5 135.25C92.0417 135.25 84.5417 132.896 79 128.188C73.4583 123.479 70.6875 117.104 70.6875 109.062C70.6875 104.021 71.9792 99.625 74.5625 95.875C77.1458 92.125 80.625 89.2083 85 87.125C81.125 85.0833 78.0833 82.3542 75.875 78.9375C73.7083 75.5208 72.625 71.6042 72.625 67.1875C72.625 59.4375 75.2083 53.2708 80.375 48.6875C85.5417 44.0625 92.5625 41.75 101.438 41.75C110.271 41.75 117.271 44.0417 122.438 48.625C127.646 53.1667 130.25 59.3542 130.25 67.1875ZM114.062 107.75C114.062 103.792 112.917 100.625 110.625 98.25C108.333 95.875 105.25 94.6875 101.375 94.6875C97.5417 94.6875 94.4792 95.875 92.1875 98.25C89.8958 100.583 88.75 103.75 88.75 107.75C88.75 111.625 89.875 114.75 92.125 117.125C94.375 119.5 97.5 120.688 101.5 120.688C105.417 120.688 108.479 119.542 110.688 117.25C112.938 114.958 114.062 111.792 114.062 107.75ZM112.188 68.0625C112.188 64.5208 111.25 61.6875 109.375 59.5625C107.5 57.3958 104.854 56.3125 101.438 56.3125C98.0625 56.3125 95.4375 57.3542 93.5625 59.4375C91.6875 61.5208 90.75 64.3958 90.75 68.0625C90.75 71.6875 91.6875 74.6042 93.5625 76.8125C95.4375 79.0208 98.0833 80.125 101.5 80.125C104.917 80.125 107.542 79.0208 109.375 76.8125C111.25 74.6042 112.188 71.6875 112.188 68.0625Z" fill="#F05056"/>
<path d="M22 29.2L32 40L42 29.2L35.3333 22L32 25.6L28.6667 22L22 29.2Z" fill="#F05056"/>
<path d="M117 160.8L107 150L97 160.8L103.667 168L107 164.4L110.333 168L117 160.8Z" fill="white"/>
</g>
</g>
<defs>
<filter id="filter0_d" x="0" y="0" width="143" height="194" filterUnits="userSpaceOnUse" color-interpolation-filters="sRGB">
<feFlood flood-opacity="0" result="BackgroundImageFix"/>
<feColorMatrix in="SourceAlpha" type="matrix" values="0 0 0 0 0 0 0 0 0 0 0 0 0 0 0 0 0 0 127 0"/>
<feOffset dx="2" dy="2"/>
<feGaussianBlur stdDeviation="4"/>
<feColorMatrix type="matrix" values="0 0 0 0 0 0 0 0 0 0 0 0 0 0 0 0 0 0 0.25 0"/>
<feBlend mode="normal" in2="BackgroundImageFix" result="effect1_dropShadow"/>
<feBlend mode="normal" in="SourceGraphic" in2="effect1_dropShadow" result="shape"/>
</filter>
</defs>
</svg>
