<svg width="143" height="194" viewBox="0 0 143 194" fill="none" xmlns="http://www.w3.org/2000/svg">
<g filter="url(#filter0_d)">
<mask id="mask0" mask-type="alpha" maskUnits="userSpaceOnUse" x="6" y="6" width="127" height="178">
<rect x="6" y="6" width="127" height="178" rx="8" fill="white"/>
</mask>
<g mask="url(#mask0)">
<rect x="6" y="6" width="127" height="178" rx="8" fill="white"/>
<path d="M22 29.2L32 40L42 29.2L35.3333 22L32 25.6L28.6667 22L22 29.2Z" fill="#F05056"/>
<rect x="6" y="134" width="127" height="50" fill="#F05056"/>
<path d="M117 160.8L107 150L97 160.8L103.667 168L107 164.4L110.333 168L117 160.8Z" fill="white"/>
<path d="M137.652 88.2773C137.652 96.2461 136.363 103.18 133.785 109.078C131.207 114.938 127.633 119.645 123.062 123.199L137.242 134.332L126.051 144.234L107.887 129.645C105.816 129.996 103.668 130.172 101.441 130.172C94.3711 130.172 88.0625 128.473 82.5156 125.074C76.9688 121.676 72.6719 116.832 69.625 110.543C66.5781 104.215 65.0352 96.9492 64.9961 88.7461V84.5273C64.9961 76.1289 66.5 68.7461 69.5078 62.3789C72.5547 55.9727 76.832 51.0703 82.3398 47.6719C87.8867 44.2344 94.2148 42.5156 101.324 42.5156C108.434 42.5156 114.742 44.2344 120.25 47.6719C125.797 51.0703 130.074 55.9727 133.082 62.3789C136.129 68.7461 137.652 76.1094 137.652 84.4688V88.2773ZM119.84 84.4102C119.84 75.4648 118.238 68.668 115.035 64.0195C111.832 59.3711 107.262 57.0469 101.324 57.0469C95.4258 57.0469 90.875 59.3516 87.6719 63.9609C84.4688 68.5312 82.8477 75.25 82.8086 84.1172V88.2773C82.8086 96.9883 84.4102 103.746 87.6133 108.551C90.8164 113.355 95.4258 115.758 101.441 115.758C107.34 115.758 111.871 113.453 115.035 108.844C118.199 104.195 119.801 97.4375 119.84 88.5703V84.4102Z" fill="#F05056"/>
<path d="M3.21875 159.719C3.21875 155.469 3.90625 151.771 5.28125 148.625C6.65625 145.5 8.5625 142.99 11 141.094L3.4375 135.156L9.40625 129.875L19.0938 137.656C20.1979 137.469 21.3438 137.375 22.5313 137.375C26.3021 137.375 29.6667 138.281 32.625 140.094C35.5833 141.906 37.875 144.49 39.5 147.844C41.125 151.219 41.9479 155.094 41.9688 159.469V161.719C41.9688 166.198 41.1667 170.135 39.5625 173.531C37.9375 176.948 35.6562 179.562 32.7188 181.375C29.7604 183.208 26.3854 184.125 22.5938 184.125C18.8021 184.125 15.4375 183.208 12.5 181.375C9.54167 179.562 7.26042 176.948 5.65625 173.531C4.03125 170.135 3.21875 166.208 3.21875 161.75V159.719ZM12.7188 161.781C12.7188 166.552 13.5729 170.177 15.2812 172.656C16.9896 175.135 19.4271 176.375 22.5938 176.375C25.7396 176.375 28.1667 175.146 29.875 172.688C31.5833 170.25 32.4479 166.667 32.4688 161.938V159.719C32.4688 155.073 31.6146 151.469 29.9063 148.906C28.1979 146.344 25.7396 145.062 22.5313 145.062C19.3854 145.062 16.9688 146.292 15.2813 148.75C13.5938 151.229 12.7396 154.833 12.7188 159.562V161.781Z" fill="white"/>
</g>
</g>
<defs>
<filter id="filter0_d" x="0" y="0" width="143" height="194" filterUnits="userSpaceOnUse" color-interpolation-filters="sRGB">
<feFlood flood-opacity="0" result="BackgroundImageFix"/>
<feColorMatrix in="SourceAlpha" type="matrix" values="0 0 0 0 0 0 0 0 0 0 0 0 0 0 0 0 0 0 127 0"/>
<feOffset dx="2" dy="2"/>
<feGaussianBlur stdDeviation="4"/>
<feColorMatrix type="matrix" values="0 0 0 0 0 0 0 0 0 0 0 0 0 0 0 0 0 0 0.25 0"/>
<feBlend mode="normal" in2="BackgroundImageFix" result="effect1_dropShadow"/>
<feBlend mode="normal" in="SourceGraphic" in2="effect1_dropShadow" result="shape"/>
</filter>
</defs>
</svg>
