<svg width="143" height="194" viewBox="0 0 143 194" fill="none" xmlns="http://www.w3.org/2000/svg">
<g filter="url(#filter0_d)">
<mask id="mask0" mask-type="alpha" maskUnits="userSpaceOnUse" x="6" y="6" width="127" height="178">
<rect x="6" y="6" width="127" height="178" rx="8" fill="white"/>
</mask>
<g mask="url(#mask0)">
<rect x="6" y="6" width="127" height="178" rx="8" fill="white"/>
<rect x="6" y="134" width="127" height="50" fill="#2A212B"/>
<path d="M133.312 134H70.9375V121.625L100.375 90.25C104.417 85.8333 107.396 81.9792 109.312 78.6875C111.271 75.3958 112.25 72.2708 112.25 69.3125C112.25 65.2708 111.229 62.1042 109.188 59.8125C107.146 57.4792 104.229 56.3125 100.438 56.3125C96.3542 56.3125 93.125 57.7292 90.75 60.5625C88.4167 63.3542 87.25 67.0417 87.25 71.625H69.125C69.125 66.0833 70.4375 61.0208 73.0625 56.4375C75.7292 51.8542 79.4792 48.2708 84.3125 45.6875C89.1458 43.0625 94.625 41.75 100.75 41.75C110.125 41.75 117.396 44 122.562 48.5C127.771 53 130.375 59.3542 130.375 67.5625C130.375 72.0625 129.208 76.6458 126.875 81.3125C124.542 85.9792 120.542 91.4167 114.875 97.625L94.1875 119.438H133.312V134Z" fill="#2A212B"/>
<path d="M2.60547 133H37.6914V139.961L21.1328 157.609C18.8594 160.094 17.1836 162.262 16.1055 164.113C15.0039 165.965 14.4531 167.723 14.4531 169.387C14.4531 171.66 15.0273 173.441 16.1758 174.73C17.3242 176.043 18.9648 176.699 21.0977 176.699C23.3945 176.699 25.2109 175.902 26.5469 174.309C27.8594 172.738 28.5156 170.664 28.5156 168.086H38.7109C38.7109 171.203 37.9727 174.051 36.4961 176.629C34.9961 179.207 32.8867 181.223 30.168 182.676C27.4492 184.152 24.3672 184.891 20.9219 184.891C15.6484 184.891 11.5586 183.625 8.65234 181.094C5.72266 178.562 4.25781 174.988 4.25781 170.371C4.25781 167.84 4.91406 165.262 6.22656 162.637C7.53906 160.012 9.78906 156.953 12.9766 153.461L24.6133 141.191H2.60547V133Z" fill="white"/>
<path d="M22 32.1818L31 22L40 32.1818V38H22V32.1818Z" fill="#2A212B" stroke="#2A212B"/>
<path d="M117 157.818L108 168L99 157.818V152H117V157.818Z" fill="white"/>
</g>
</g>
<defs>
<filter id="filter0_d" x="0" y="0" width="143" height="194" filterUnits="userSpaceOnUse" color-interpolation-filters="sRGB">
<feFlood flood-opacity="0" result="BackgroundImageFix"/>
<feColorMatrix in="SourceAlpha" type="matrix" values="0 0 0 0 0 0 0 0 0 0 0 0 0 0 0 0 0 0 127 0"/>
<feOffset dx="2" dy="2"/>
<feGaussianBlur stdDeviation="4"/>
<feColorMatrix type="matrix" values="0 0 0 0 0 0 0 0 0 0 0 0 0 0 0 0 0 0 0.25 0"/>
<feBlend mode="normal" in2="BackgroundImageFix" result="effect1_dropShadow"/>
<feBlend mode="normal" in="SourceGraphic" in2="effect1_dropShadow" result="shape"/>
</filter>
</defs>
</svg>
