<svg width="143" height="194" viewBox="0 0 143 194" fill="none" xmlns="http://www.w3.org/2000/svg">
<g filter="url(#filter0_d)">
<mask id="mask0" mask-type="alpha" maskUnits="userSpaceOnUse" x="6" y="6" width="127" height="178">
<rect x="6" y="6" width="127" height="178" rx="8" fill="white"/>
</mask>
<g mask="url(#mask0)">
<rect x="6" y="6" width="127" height="178" rx="8" fill="white"/>
<rect x="6" y="134" width="127" height="50" fill="#2A212B"/>
<path d="M119.938 42.0625V56.9375H118.188C110.021 57.0625 103.438 59.1875 98.4375 63.3125C93.4792 67.4375 90.5 73.1667 89.5 80.5C94.3333 75.5833 100.438 73.125 107.812 73.125C115.729 73.125 122.021 75.9583 126.688 81.625C131.354 87.2917 133.688 94.75 133.688 104C133.688 109.917 132.396 115.271 129.812 120.062C127.271 124.854 123.646 128.583 118.938 131.25C114.271 133.917 108.979 135.25 103.062 135.25C93.4792 135.25 85.7292 131.917 79.8125 125.25C73.9375 118.583 71 109.688 71 98.5625V92.0625C71 82.1875 72.8542 73.4792 76.5625 65.9375C80.3125 58.3542 85.6667 52.5 92.625 48.375C99.625 44.2083 107.729 42.1042 116.938 42.0625H119.938ZM102.312 87.625C99.3958 87.625 96.75 88.3958 94.375 89.9375C92 91.4375 90.25 93.4375 89.125 95.9375V101.438C89.125 107.479 90.3125 112.208 92.6875 115.625C95.0625 119 98.3958 120.688 102.688 120.688C106.562 120.688 109.688 119.167 112.062 116.125C114.479 113.042 115.688 109.062 115.688 104.188C115.688 99.2292 114.479 95.2292 112.062 92.1875C109.646 89.1458 106.396 87.625 102.312 87.625Z" fill="#2A212B"/>
<path d="M10.1289 184.715V176.348H11.1133C15.707 176.277 19.4102 175.082 22.2227 172.762C25.0117 170.441 26.6875 167.219 27.25 163.094C24.5313 165.859 21.0977 167.242 16.9492 167.242C12.4961 167.242 8.95703 165.648 6.33203 162.461C3.70703 159.273 2.39453 155.078 2.39453 149.875C2.39453 146.547 3.12109 143.535 4.57422 140.84C6.00391 138.145 8.04297 136.047 10.6914 134.547C13.3164 133.047 16.293 132.297 19.6211 132.297C25.0117 132.297 29.3711 134.172 32.6992 137.922C36.0039 141.672 37.6563 146.676 37.6563 152.934L37.6562 156.59C37.6562 162.145 36.6133 167.043 34.5273 171.285C32.418 175.551 29.4062 178.844 25.4922 181.164C21.5547 183.508 16.9961 184.691 11.8164 184.715H10.1289ZM20.043 159.086C21.6836 159.086 23.1719 158.652 24.5078 157.785C25.8438 156.941 26.8281 155.816 27.4609 154.41V151.316C27.4609 147.918 26.793 145.258 25.457 143.336C24.1211 141.438 22.2461 140.488 19.832 140.488C17.6523 140.488 15.8945 141.344 14.5586 143.055C13.1992 144.789 12.5195 147.027 12.5195 149.77C12.5195 152.559 13.1992 154.809 14.5586 156.52C15.918 158.23 17.7461 159.086 20.043 159.086Z" fill="white"/>
<path d="M22 32.1818L31 22L40 32.1818V38H22V32.1818Z" fill="#2A212B" stroke="#2A212B"/>
<path d="M117 157.818L108 168L99 157.818V152H117V157.818Z" fill="white"/>
</g>
</g>
<defs>
<filter id="filter0_d" x="0" y="0" width="143" height="194" filterUnits="userSpaceOnUse" color-interpolation-filters="sRGB">
<feFlood flood-opacity="0" result="BackgroundImageFix"/>
<feColorMatrix in="SourceAlpha" type="matrix" values="0 0 0 0 0 0 0 0 0 0 0 0 0 0 0 0 0 0 127 0"/>
<feOffset dx="2" dy="2"/>
<feGaussianBlur stdDeviation="4"/>
<feColorMatrix type="matrix" values="0 0 0 0 0 0 0 0 0 0 0 0 0 0 0 0 0 0 0.25 0"/>
<feBlend mode="normal" in2="BackgroundImageFix" result="effect1_dropShadow"/>
<feBlend mode="normal" in="SourceGraphic" in2="effect1_dropShadow" result="shape"/>
</filter>
</defs>
</svg>
